<svg width="28" height="28" viewBox="0 0 28 28" fill="none" xmlns="http://www.w3.org/2000/svg">
<path d="M26.2033 7.00001C25.305 7.40834 24.3366 7.67667 23.3333 7.80501C24.36 7.18667 25.1533 6.20667 25.5266 5.02834C24.5583 5.61167 23.485 6.02001 22.3533 6.25334C21.4316 5.25001 20.1366 4.66667 18.6666 4.66667C15.925 4.66667 13.685 6.90667 13.685 9.67167C13.685 10.0683 13.7316 10.4533 13.8133 10.815C9.65996 10.605 5.96163 8.61 3.49996 5.58834C3.0683 6.32334 2.8233 7.18667 2.8233 8.09667C2.8233 9.835 3.6983 11.375 5.05163 12.25C4.2233 12.25 3.4533 12.0167 2.77663 11.6667V11.7017C2.77663 14.1283 4.5033 16.1583 6.78996 16.6133C6.05581 16.8142 5.28508 16.8422 4.5383 16.695C4.85517 17.6896 5.47576 18.5598 6.31282 19.1834C7.14988 19.807 8.16132 20.1526 9.20496 20.1717C7.43587 21.5722 5.24296 22.3292 2.98663 22.3183C2.58996 22.3183 2.1933 22.295 1.79663 22.2483C4.0133 23.6717 6.64996 24.5 9.4733 24.5C18.6666 24.5 23.7183 16.87 23.7183 10.255C23.7183 10.0333 23.7183 9.82334 23.7066 9.60167C24.6866 8.90167 25.5266 8.015 26.2033 7.00001Z" fill="#F5F7DC"/>
</svg>
