<svg width="28" height="28" viewBox="0 0 28 28" fill="none" xmlns="http://www.w3.org/2000/svg">
<path d="M10.5467 25.13C11.6667 25.4683 12.7984 25.6667 14 25.6667C17.0942 25.6667 20.0617 24.4375 22.2496 22.2496C24.4375 20.0616 25.6667 17.0942 25.6667 14C25.6667 12.4679 25.3649 10.9508 24.7786 9.53535C24.1923 8.11989 23.333 6.83377 22.2496 5.75042C21.1663 4.66707 19.8801 3.80771 18.4647 3.2214C17.0492 2.6351 15.5321 2.33333 14 2.33333C12.468 2.33333 10.9509 2.6351 9.5354 3.2214C8.11994 3.80771 6.83381 4.66707 5.75046 5.75042C3.56254 7.93834 2.33337 10.9058 2.33337 14C2.33337 18.9583 5.44837 23.2167 9.84671 24.8967C9.74171 23.9867 9.63671 22.4817 9.84671 21.4433L11.1884 15.68C11.1884 15.68 10.85 15.0033 10.85 13.93C10.85 12.32 11.8534 11.1183 12.9967 11.1183C14 11.1183 14.4667 11.8533 14.4667 12.7983C14.4667 13.8017 13.8017 15.2367 13.4634 16.6133C13.265 17.7567 14.07 18.76 15.2367 18.76C17.3134 18.76 18.9234 16.5433 18.9234 13.4167C18.9234 10.6167 16.9167 8.70333 14.035 8.70333C10.745 8.70333 8.80837 11.1533 8.80837 13.7317C8.80837 14.735 9.13504 15.75 9.67171 16.415C9.77671 16.485 9.77671 16.5783 9.74171 16.7533L9.40337 18.025C9.40337 18.2233 9.27504 18.2933 9.07671 18.1533C7.58337 17.5 6.72004 15.3767 6.72004 13.6617C6.72004 9.97499 9.33337 6.62666 14.3734 6.62666C18.3867 6.62666 21.5134 9.50833 21.5134 13.335C21.5134 17.3483 19.0284 20.5683 15.47 20.5683C14.3384 20.5683 13.23 19.9617 12.8334 19.25L12.0517 22.015C11.7834 23.0183 11.0484 24.36 10.5467 25.165V25.13Z" fill="#F5F7DC"/>
</svg>
