<svg width="41" height="25" viewBox="0 0 41 25" fill="none" xmlns="http://www.w3.org/2000/svg">
<path d="M1.05371 24.3796C0.746114 24.3076 0.479254 24.1721 0.29036 23.992C0.101466 23.8118 -4.09779e-05 23.5961 1.24096e-08 23.3749C1.24096e-08 18.5206 1.43359 14.6385 4.2627 11.8355C7.68067 8.44877 13.0723 6.62526 20.3125 6.39881V1.06241C20.3125 0.854357 20.4024 0.650891 20.5709 0.477248C20.7394 0.303606 20.9792 0.167429 21.2605 0.0856103C21.5418 0.00379201 21.8523 -0.0200668 22.1533 0.0169935C22.4544 0.0540538 22.7328 0.150402 22.9541 0.294087L40.1416 11.4503C40.2943 11.5495 40.4159 11.6688 40.499 11.8008C40.582 11.9329 40.6249 12.075 40.6249 12.2187C40.6249 12.3623 40.582 12.5044 40.499 12.6365C40.4159 12.7685 40.2943 12.8878 40.1416 12.987L22.9541 24.1432C22.7328 24.2869 22.4544 24.3833 22.1533 24.4203C21.8523 24.4574 21.5418 24.4335 21.2605 24.3517C20.9792 24.2699 20.7394 24.1337 20.5709 23.9601C20.4024 23.7864 20.3125 23.583 20.3125 23.3749V18.0777C15.918 18.168 12.5977 18.6521 9.9541 19.5811C7.09766 20.5852 5.02637 22.0853 2.79395 24.0303C2.59368 24.2047 2.31834 24.3322 2.00637 24.3951C1.6944 24.4579 1.36136 24.453 1.05371 24.381V24.3796Z" fill="#F5F7DC"/>
</svg>
